<svg width="352" height="61" viewBox="0 0 352 61" fill="none" xmlns="http://www.w3.org/2000/svg">
<path d="M18.3103 48.64C14.8116 48.64 11.4623 48.1493 8.26225 47.168C5.06225 46.144 2.52358 44.8427 0.64625 43.264L3.52625 36.8C5.31825 38.208 7.53692 39.3813 10.1823 40.32C12.8276 41.2587 15.5369 41.728 18.3103 41.728C20.6569 41.728 22.5556 41.472 24.0063 40.96C25.4569 40.448 26.5236 39.7653 27.2063 38.912C27.8889 38.016 28.2303 37.0133 28.2303 35.904C28.2303 34.5387 27.7396 33.4507 26.7583 32.64C25.7769 31.7867 24.4969 31.1253 22.9183 30.656C21.3823 30.144 19.6543 29.6747 17.7343 29.248C15.8569 28.8213 13.9583 28.3307 12.0383 27.776C10.1609 27.1787 8.43292 26.432 6.85425 25.536C5.31825 24.5973 4.05958 23.36 3.07825 21.824C2.09692 20.288 1.60625 18.3253 1.60625 15.936C1.60625 13.504 2.24625 11.2853 3.52625 9.28C4.84892 7.232 6.83292 5.61066 9.47825 4.416C12.1663 3.17866 15.5583 2.56 19.6543 2.56C22.3423 2.56 25.0089 2.90133 27.6543 3.584C30.2996 4.26667 32.6036 5.248 34.5662 6.528L31.9423 12.992C29.9369 11.7973 27.8676 10.9227 25.7343 10.368C23.6009 9.77066 21.5529 9.472 19.5903 9.472C17.2863 9.472 15.4089 9.74933 13.9583 10.304C12.5503 10.8587 11.5049 11.584 10.8223 12.48C10.1823 13.376 9.86225 14.4 9.86225 15.552C9.86225 16.9173 10.3316 18.0267 11.2703 18.88C12.2516 19.6907 13.5103 20.3307 15.0463 20.8C16.6249 21.2693 18.3743 21.7387 20.2943 22.208C22.2143 22.6347 24.1129 23.1253 25.9903 23.68C27.9103 24.2347 29.6383 24.96 31.1743 25.856C32.7529 26.752 34.0116 27.968 34.9503 29.504C35.9316 31.04 36.4223 32.9813 36.4223 35.328C36.4223 37.7173 35.7609 39.936 34.4383 41.984C33.1583 43.9893 31.1743 45.6107 28.4863 46.848C25.7983 48.0427 22.4063 48.64 18.3103 48.64ZM46.0953 60.864C44.4313 60.864 42.7673 60.5867 41.1033 60.032C39.4393 59.4773 38.0526 58.7093 36.9432 57.728L40.1432 51.84C40.9539 52.5653 41.8713 53.1413 42.8953 53.568C43.9193 53.9947 44.9646 54.208 46.0312 54.208C47.4819 54.208 48.6553 53.8453 49.5513 53.12C50.4473 52.3947 51.2793 51.1787 52.0473 49.472L54.0312 44.992L54.6713 44.032L67.5993 13.824H75.2793L59.2793 50.752C58.2126 53.312 57.0179 55.3387 55.6953 56.832C54.4153 58.3253 52.9646 59.3707 51.3433 59.968C49.7646 60.5653 48.0153 60.864 46.0953 60.864ZM53.1353 49.216L37.7112 13.824H46.0312L58.5753 43.328L53.1353 49.216ZM123.415 13.44C126.146 13.44 128.557 13.9733 130.647 15.04C132.781 16.1067 134.445 17.7493 135.639 19.968C136.834 22.144 137.431 24.96 137.431 28.416V48H129.431V29.44C129.431 26.4107 128.77 24.1493 127.447 22.656C126.125 21.1627 124.226 20.416 121.751 20.416C120.002 20.416 118.445 20.8 117.079 21.568C115.757 22.336 114.711 23.4667 113.943 24.96C113.218 26.4533 112.855 28.352 112.855 30.656V48H104.855V29.44C104.855 26.4107 104.194 24.1493 102.871 22.656C101.549 21.1627 99.6499 20.416 97.1753 20.416C95.4259 20.416 93.8686 20.8 92.5033 21.568C91.1806 22.336 90.1353 23.4667 89.3673 24.96C88.6419 26.4533 88.2793 28.352 88.2793 30.656V48H80.2793V13.824H87.8953V22.912L86.5513 20.224C87.7033 18.0053 89.3673 16.32 91.5433 15.168C93.7619 14.016 96.2793 13.44 99.0953 13.44C102.295 13.44 105.069 14.2293 107.415 15.808C109.805 17.3867 111.383 19.776 112.151 22.976L109.015 21.888C110.125 19.328 111.959 17.28 114.519 15.744C117.079 14.208 120.045 13.44 123.415 13.44ZM166.598 48.448C163.825 48.448 161.286 47.808 158.982 46.528C156.721 45.248 154.908 43.328 153.542 40.768C152.22 38.1653 151.558 34.88 151.558 30.912C151.558 26.9013 152.198 23.616 153.478 21.056C154.801 18.496 156.593 16.5973 158.854 15.36C161.116 14.08 163.697 13.44 166.598 13.44C169.969 13.44 172.934 14.1653 175.494 15.616C178.097 17.0667 180.145 19.0933 181.638 21.696C183.174 24.2987 183.942 27.3707 183.942 30.912C183.942 34.4533 183.174 37.5467 181.638 40.192C180.145 42.7947 178.097 44.8213 175.494 46.272C172.934 47.7227 169.969 48.448 166.598 48.448ZM147.654 60.416V13.824H155.27V21.888L155.014 30.976L155.654 40.064V60.416H147.654ZM165.702 41.6C167.622 41.6 169.329 41.1733 170.822 40.32C172.358 39.4667 173.574 38.2293 174.47 36.608C175.366 34.9867 175.814 33.088 175.814 30.912C175.814 28.6933 175.366 26.7947 174.47 25.216C173.574 23.5947 172.358 22.3573 170.822 21.504C169.329 20.6507 167.622 20.224 165.702 20.224C163.782 20.224 162.054 20.6507 160.518 21.504C158.982 22.3573 157.766 23.5947 156.87 25.216C155.974 26.7947 155.526 28.6933 155.526 30.912C155.526 33.088 155.974 34.9867 156.87 36.608C157.766 38.2293 158.982 39.4667 160.518 40.32C162.054 41.1733 163.782 41.6 165.702 41.6ZM210.921 13.44C213.652 13.44 216.084 13.9733 218.217 15.04C220.393 16.1067 222.1 17.7493 223.337 19.968C224.575 22.144 225.193 24.96 225.193 28.416V48H217.193V29.44C217.193 26.4107 216.468 24.1493 215.017 22.656C213.609 21.1627 211.625 20.416 209.065 20.416C207.188 20.416 205.524 20.8 204.073 21.568C202.623 22.336 201.492 23.488 200.681 25.024C199.913 26.5173 199.529 28.416 199.529 30.72V48H191.529V0.511997H199.529V23.04L197.801 20.224C198.996 18.048 200.724 16.384 202.985 15.232C205.289 14.0373 207.935 13.44 210.921 13.44ZM250.764 48.448C247.266 48.448 244.151 47.7013 241.42 46.208C238.69 44.672 236.535 42.5813 234.956 39.936C233.378 37.2907 232.588 34.2827 232.588 30.912C232.588 27.4987 233.378 24.4907 234.956 21.888C236.535 19.2427 238.69 17.1733 241.42 15.68C244.151 14.1867 247.266 13.44 250.764 13.44C254.306 13.44 257.442 14.1867 260.172 15.68C262.946 17.1733 265.1 19.2213 266.636 21.824C268.215 24.4267 269.004 27.456 269.004 30.912C269.004 34.2827 268.215 37.2907 266.636 39.936C265.1 42.5813 262.946 44.672 260.172 46.208C257.442 47.7013 254.306 48.448 250.764 48.448ZM250.764 41.6C252.727 41.6 254.476 41.1733 256.012 40.32C257.548 39.4667 258.743 38.2293 259.596 36.608C260.492 34.9867 260.94 33.088 260.94 30.912C260.94 28.6933 260.492 26.7947 259.596 25.216C258.743 23.5947 257.548 22.3573 256.012 21.504C254.476 20.6507 252.748 20.224 250.828 20.224C248.866 20.224 247.116 20.6507 245.58 21.504C244.087 22.3573 242.892 23.5947 241.996 25.216C241.1 26.7947 240.652 28.6933 240.652 30.912C240.652 33.088 241.1 34.9867 241.996 36.608C242.892 38.2293 244.087 39.4667 245.58 40.32C247.116 41.1733 248.844 41.6 250.764 41.6ZM296.046 13.44C298.777 13.44 301.209 13.9733 303.342 15.04C305.518 16.1067 307.225 17.7493 308.462 19.968C309.7 22.144 310.318 24.96 310.318 28.416V48H302.318V29.44C302.318 26.4107 301.593 24.1493 300.142 22.656C298.734 21.1627 296.75 20.416 294.19 20.416C292.313 20.416 290.649 20.8 289.198 21.568C287.748 22.336 286.617 23.488 285.806 25.024C285.038 26.5173 284.654 28.416 284.654 30.72V48H276.654V13.824H284.27V23.04L282.926 20.224C284.121 18.048 285.849 16.384 288.11 15.232C290.414 14.0373 293.06 13.44 296.046 13.44ZM322.658 60.864C320.994 60.864 319.33 60.5867 317.666 60.032C316.002 59.4773 314.615 58.7093 313.506 57.728L316.706 51.84C317.516 52.5653 318.434 53.1413 319.458 53.568C320.482 53.9947 321.527 54.208 322.594 54.208C324.044 54.208 325.218 53.8453 326.114 53.12C327.01 52.3947 327.842 51.1787 328.61 49.472L330.594 44.992L331.234 44.032L344.162 13.824H351.842L335.842 50.752C334.775 53.312 333.58 55.3387 332.258 56.832C330.978 58.3253 329.527 59.3707 327.906 59.968C326.327 60.5653 324.578 60.864 322.658 60.864ZM329.698 49.216L314.274 13.824H322.594L335.138 43.328L329.698 49.216Z" fill="white"/>
</svg>
